<svg width="332" height="1113" viewBox="0 0 332 1113" fill="none" xmlns="http://www.w3.org/2000/svg">
<rect x="17.2425" y="855.987" width="69" height="69" transform="rotate(-44.6075 17.2425 855.987)" stroke="#FA0069" stroke-width="6"/>
<rect x="259.567" y="903.478" width="69" height="69" transform="rotate(7.76079 259.567 903.478)" stroke="#FA0069" stroke-width="6"/>
<rect x="102.175" y="1051.65" width="69" height="69" transform="rotate(-34.7595 102.175 1051.65)" stroke="#FA0069" stroke-width="6"/>
<rect x="161.306" y="685.737" width="69" height="69" transform="rotate(-6.18283 161.306 685.737)" stroke="#FA0069" stroke-width="6"/>
<rect x="4.24254" y="176.698" width="69" height="69" transform="rotate(-44.6075 4.24254 176.698)" stroke="#FA0069" stroke-width="6"/>
<rect x="259.695" y="223.378" width="69" height="69" transform="rotate(7.76079 259.695 223.378)" stroke="#FA0069" stroke-width="6"/>
<rect x="92.1751" y="364.514" width="69" height="69" transform="rotate(-34.7595 92.1751 364.514)" stroke="#FA0069" stroke-width="6"/>
<rect x="36.1105" y="537.565" width="69" height="69" transform="rotate(12.1695 36.1105 537.565)" stroke="#FA0069" stroke-width="6"/>
<rect x="237.373" y="495.759" width="69" height="69" transform="rotate(17.3821 237.373 495.759)" stroke="#FA0069" stroke-width="6"/>
<rect x="187.895" y="3.67912" width="69" height="69" transform="rotate(13.5923 187.895 3.67912)" stroke="#FA0069" stroke-width="6"/>
</svg>
