<svg width="70" height="44" viewBox="0 0 70 44" fill="none" xmlns="http://www.w3.org/2000/svg">
<path d="M32.1005 25.1796H9.79451V4.36089H41.3947H43.2536H46.9712V2.46829C46.9712 1.33273 46.2277 0.575684 45.1124 0.575684H7.93568C6.82038 0.575684 6.07684 1.33273 6.07684 2.46829V25.1796C5.33331 25.1796 4.58977 25.5581 4.40389 26.3151L0.686216 35.7781C0.500332 36.3459 0.500332 37.103 0.8721 37.4815C1.24387 37.86 1.80152 38.4278 2.35917 38.4278H32.1005V25.1796Z" fill="white"/>
<g clip-path="url(#clip0_30_78)">
<path d="M67.3618 20.5737H55.3289C55.0837 20.5745 54.8486 20.674 54.6752 20.8506C54.5018 21.0271 54.404 21.2664 54.4033 21.5161V42.2493C54.404 42.499 54.5018 42.7383 54.6752 42.9149C54.8486 43.0915 55.0836 43.191 55.3289 43.1918H67.3618C67.607 43.191 67.8421 43.0915 68.0155 42.9149C68.1889 42.7383 68.2867 42.499 68.2874 42.2493V21.5161C68.2866 21.2664 68.1889 21.0271 68.0155 20.8506C67.842 20.674 67.607 20.5745 67.3618 20.5737ZM59.957 21.9873H62.7337C62.8564 21.9877 62.9739 22.0375 63.0606 22.1257C63.1473 22.214 63.1962 22.3337 63.1965 22.4585C63.1971 22.5206 63.1856 22.5821 63.1625 22.6396C63.1395 22.697 63.1054 22.7492 63.0623 22.7931C63.0192 22.837 62.968 22.8716 62.9115 22.8951C62.8551 22.9186 62.7947 22.9303 62.7337 22.9297H59.957C59.8343 22.9294 59.7168 22.8796 59.6301 22.7913C59.5434 22.703 59.4945 22.5834 59.4942 22.4585C59.4961 22.3342 59.5455 22.2155 59.6318 22.1275C59.7182 22.0396 59.8348 21.9893 59.957 21.9873ZM66.612 38.4796H56.0787V25.2858H66.612V38.4796Z" fill="#00FA91"/>
<path d="M36.5836 12.1622H57.9168V19.3844H60.9644V9.05927C60.9645 8.65175 60.8857 8.2482 60.7326 7.87168C60.5795 7.49516 60.355 7.15304 60.072 6.86488C59.789 6.57672 59.453 6.34816 59.0832 6.19227C58.7134 6.03637 58.317 5.95618 57.9168 5.9563H36.5836C36.1833 5.95619 35.787 6.03637 35.4172 6.19227C35.0474 6.34817 34.7113 6.57673 34.4283 6.86489C34.1453 7.15305 33.9208 7.49516 33.7677 7.87168C33.6146 8.2482 33.5358 8.65175 33.5359 9.05927V40.089C33.5358 40.4965 33.6146 40.9 33.7677 41.2765C33.9208 41.6531 34.1453 41.9952 34.4283 42.2833C34.7114 42.5715 35.0474 42.8 35.4172 42.9559C35.787 43.1118 36.1833 43.192 36.5836 43.1919H52.9873V36.2102H36.5836V12.1622ZM44.9645 8.28352H49.5359C49.7377 8.28393 49.9311 8.36583 50.0736 8.51127C50.2162 8.6567 50.2963 8.85379 50.2963 9.05927C50.2963 9.26474 50.2162 9.46183 50.0736 9.60726C49.9311 9.7527 49.7377 9.83461 49.5359 9.83501H44.9645C44.8643 9.83521 44.765 9.81529 44.6724 9.77639C44.5798 9.7375 44.4957 9.68039 44.4248 9.60833C44.3538 9.53628 44.2976 9.4507 44.2592 9.35648C44.2208 9.26226 44.2011 9.16127 44.2011 9.05927C44.2011 8.95727 44.2208 8.85627 44.2592 8.76205C44.2976 8.66784 44.3538 8.58225 44.4248 8.5102C44.4957 8.43814 44.5798 8.38103 44.6724 8.34214C44.765 8.30324 44.8643 8.28332 44.9645 8.28352Z" fill="white"/>
</g>
<defs>
<clipPath id="clip0_30_78">
<rect width="37.1767" height="37.8521" fill="white" transform="translate(32.3233 5.64795)"/>
</clipPath>
</defs>
</svg>
