<svg width="29" height="23" viewBox="0 0 29 23" fill="none" xmlns="http://www.w3.org/2000/svg">
<path d="M2 9.84601C1.17157 9.84601 0.5 10.5176 0.5 11.346C0.5 12.1744 1.17157 12.846 2 12.846L2 9.84601ZM28.0607 12.4067C28.6464 11.8209 28.6464 10.8711 28.0607 10.2853L18.5147 0.739407C17.9289 0.15362 16.9792 0.15362 16.3934 0.739407C15.8076 1.32519 15.8076 2.27494 16.3934 2.86073L24.8787 11.346L16.3934 19.8313C15.8076 20.4171 15.8076 21.3668 16.3934 21.9526C16.9792 22.5384 17.9289 22.5384 18.5147 21.9526L28.0607 12.4067ZM2 12.846L27 12.846V9.84601L2 9.84601L2 12.846Z" fill="white"/>
</svg>
