<svg width="38" height="102" viewBox="0 0 38 102" xmlns="http://www.w3.org/2000/svg">
<path d="M7 1.12952C7 0.577232 6.55228 0.129517 6 0.129517C5.44772 0.129517 5 0.577232 5 1.12952H7ZM6 101.037L11.7735 91.037H0.226497L6 101.037ZM5 1.12952L5 92.037H7L7 1.12952H5Z" fill-opacity="1"/>
<line x1="20" y1="10.1221" x2="20" y2="83.0527" stroke="none" stroke-opacity="1" stroke-width="2" stroke-linecap="round"/>
<path d="M33 1.12952C33 0.577232 32.5523 0.129517 32 0.129517C31.4477 0.129517 31 0.577232 31 1.12952H33ZM32 101.037L37.7735 91.037H26.2265L32 101.037ZM31 1.12952L31 92.037H33L33 1.12952H31Z" fill-opacity="1"/>
</svg>
