<svg width="40" height="44" viewBox="0 0 40 44" fill="none" xmlns="http://www.w3.org/2000/svg">
<g clip-path="url(#clip0_30_91)">
<path d="M20 4.3922C20.2586 4.3922 20.5066 4.29456 20.6894 4.12077C20.8723 3.94697 20.975 3.71126 20.975 3.46548V1.61203C20.975 1.36624 20.8723 1.13053 20.6894 0.956731C20.5066 0.782942 20.2586 0.685303 20 0.685303C19.7415 0.685303 19.4934 0.782942 19.3106 0.956731C19.1278 1.13053 19.025 1.36624 19.025 1.61203V3.46548C19.025 3.71126 19.1278 3.94697 19.3106 4.12077C19.4934 4.29456 19.7415 4.3922 20 4.3922Z" fill="#00FA91"/>
<path d="M38.525 18.2932H36.575C36.3164 18.2932 36.0684 18.3909 35.8856 18.5646C35.7027 18.7384 35.6 18.9742 35.6 19.2199C35.6 19.4657 35.7027 19.7015 35.8856 19.8752C36.0684 20.049 36.3164 20.1467 36.575 20.1467H38.525C38.7836 20.1467 39.0316 20.049 39.2144 19.8752C39.3972 19.7015 39.5 19.4657 39.5 19.2199C39.5 18.9742 39.3972 18.7384 39.2144 18.5646C39.0316 18.3909 38.7836 18.2932 38.525 18.2932Z" fill="#00FA91"/>
<path d="M3.425 18.2932H1.475C1.21641 18.2932 0.968419 18.3909 0.785568 18.5646C0.602726 18.7384 0.5 18.9742 0.5 19.2199C0.5 19.4657 0.602726 19.7015 0.785568 19.8752C0.968419 20.049 1.21641 20.1467 1.475 20.1467H3.425C3.68359 20.1467 3.93158 20.049 4.11443 19.8752C4.29727 19.7015 4.4 19.4657 4.4 19.2199C4.4 18.9742 4.29727 18.7384 4.11443 18.5646C3.93158 18.3909 3.68359 18.2932 3.425 18.2932Z" fill="#00FA91"/>
<path d="M7.5902 8.73492C7.77408 8.90373 8.02037 8.99714 8.27601 8.99503C8.53166 8.99292 8.77619 8.89545 8.95695 8.72363C9.13772 8.55181 9.24029 8.31938 9.24253 8.07639C9.24477 7.83341 9.14649 7.59932 8.96885 7.42453L7.5902 6.11414C7.40631 5.94533 7.16003 5.85193 6.90438 5.85404C6.64874 5.85615 6.40421 5.95362 6.22343 6.12543C6.04267 6.29725 5.94013 6.52969 5.9379 6.77267C5.93568 7.01566 6.03395 7.24975 6.21156 7.42453L7.5902 8.73492Z" fill="#00FA91"/>
<path d="M32.4098 29.7039C32.3192 29.6179 32.2116 29.5496 32.0934 29.503C31.975 29.4565 31.8482 29.4325 31.7201 29.4326C31.592 29.4326 31.4653 29.4567 31.3469 29.5033C31.2286 29.5499 31.1212 29.6182 31.0306 29.7043C30.9401 29.7904 30.8683 29.8926 30.8193 30.0051C30.7704 30.1176 30.7452 30.2381 30.7452 30.3599C30.7453 30.4816 30.7706 30.6021 30.8196 30.7146C30.8687 30.827 30.9405 30.9292 31.0311 31.0152L32.4098 32.3256C32.5936 32.4944 32.8399 32.5877 33.0956 32.5857C33.3512 32.5836 33.5957 32.4861 33.7765 32.3143C33.9573 32.1425 34.0598 31.91 34.0621 31.667C34.0643 31.4241 33.9661 31.19 33.7884 31.0152L32.4098 29.7039Z" fill="#00FA91"/>
<path d="M32.4098 6.11397L31.0311 7.42436C30.938 7.50985 30.8637 7.61211 30.8126 7.72518C30.7615 7.83824 30.7346 7.95984 30.7336 8.08289C30.7324 8.20594 30.7571 8.32797 30.8061 8.44187C30.8551 8.55575 30.9275 8.65922 31.019 8.74624C31.1106 8.83325 31.2195 8.90206 31.3393 8.94866C31.4592 8.99525 31.5875 9.01871 31.7169 9.01763C31.8464 9.01657 31.9743 8.991 32.0933 8.94243C32.2122 8.89386 32.3199 8.82326 32.4098 8.73475L33.7884 7.42436C33.8815 7.33888 33.9558 7.23662 34.0069 7.12356C34.058 7.01049 34.0849 6.88888 34.0861 6.76583C34.0872 6.64278 34.0625 6.52075 34.0134 6.40686C33.9645 6.29297 33.8921 6.1895 33.8005 6.10249C33.709 6.01547 33.6001 5.94666 33.4803 5.90007C33.3605 5.85347 33.2321 5.83002 33.1026 5.83109C32.9731 5.83216 32.8452 5.85772 32.7263 5.90629C32.6073 5.95486 32.4998 6.02546 32.4098 6.11397Z" fill="#00FA91"/>
<path d="M7.59025 29.7039L6.2116 31.0152C6.11847 31.1006 6.0442 31.2029 5.9931 31.316C5.942 31.4291 5.91511 31.5506 5.91398 31.6737C5.91286 31.7968 5.93752 31.9188 5.98655 32.0327C6.03557 32.1465 6.10796 32.25 6.19952 32.3371C6.29106 32.4241 6.39988 32.4928 6.5197 32.5395C6.63953 32.5861 6.76794 32.6095 6.89742 32.6084C7.0269 32.6074 7.15482 32.5818 7.27377 32.5333C7.39272 32.4847 7.50026 32.4141 7.59025 32.3256L8.9689 31.0152C9.05948 30.9292 9.13134 30.827 9.18038 30.7146C9.22942 30.6021 9.25468 30.4816 9.25477 30.3599C9.25477 30.2381 9.22962 30.1176 9.18067 30.0051C9.13173 29.8926 9.05987 29.7904 8.96939 29.7043C8.87881 29.6182 8.77137 29.5499 8.6531 29.5033C8.53474 29.4567 8.40799 29.4326 8.27987 29.4326C8.15185 29.4325 8.02501 29.4565 7.90674 29.503C7.78837 29.5496 7.68083 29.6179 7.59025 29.7039Z" fill="#00FA91"/>
<path d="M19.9999 6.24561C16.3809 6.24928 12.9112 7.61738 10.3522 10.0497C7.79313 12.482 6.35384 15.7799 6.34994 19.2197C6.29714 21.0298 6.63688 22.8309 7.34785 24.5108C8.05892 26.1908 9.12605 27.7136 10.483 28.9846C11.3231 29.7372 11.9946 30.6434 12.4572 31.6487C12.9198 32.654 13.1639 33.7378 13.1749 34.8351V36.8275C13.1775 37.4005 13.3661 37.9587 13.7152 38.4258C14.0642 38.893 14.5566 39.2462 15.1249 39.4372V39.6077C15.1249 40.5908 15.5358 41.5337 16.2672 42.2288C16.9986 42.9241 17.9906 43.3146 19.0249 43.3146H20.9749C22.0093 43.3146 23.0013 42.9241 23.7326 42.2288C24.4641 41.5337 24.8749 40.5908 24.8749 39.6077V39.4372C25.4433 39.2462 25.9356 38.893 26.2847 38.4258C26.6337 37.9587 26.8224 37.4005 26.8249 36.8275V34.8351C26.8359 33.7378 27.0801 32.654 27.5426 31.6487C28.0053 30.6434 28.6768 29.7372 29.5169 28.9846C30.8738 27.7136 31.941 26.1908 32.652 24.5108C33.3631 22.8309 33.7028 21.0298 33.6499 19.2197C33.646 15.7799 32.2067 12.482 29.6477 10.0497C27.0887 7.61738 23.6189 6.24928 19.9999 6.24561ZM20.9749 41.4611H19.0249C18.5078 41.4611 18.0118 41.2659 17.6461 40.9183C17.2804 40.5706 17.0749 40.0992 17.0749 39.6077H22.9249C22.9249 40.0992 22.7195 40.5706 22.3538 40.9183C21.9881 41.2659 21.4921 41.4611 20.9749 41.4611ZM23.8999 37.7542H16.0999C15.8414 37.7542 15.5933 37.6566 15.4105 37.4828C15.2277 37.309 15.1249 37.0733 15.1249 36.8275V35.9008H24.8749V36.8275C24.8749 37.0733 24.7723 37.309 24.5894 37.4828C24.4065 37.6566 24.1585 37.7542 23.8999 37.7542ZM17.0749 25.7068H16.0999C15.9071 25.7068 15.7186 25.6525 15.5582 25.5507C15.3979 25.4488 15.2729 25.3041 15.1991 25.1348C15.1253 24.9654 15.106 24.7791 15.1437 24.5993C15.1813 24.4195 15.2741 24.2544 15.4105 24.1248C15.5469 23.9952 15.7206 23.9069 15.9097 23.8712C16.0989 23.8354 16.2949 23.8537 16.4731 23.9239C16.6512 23.994 16.8035 24.1129 16.9106 24.2652C17.0178 24.4177 17.0749 24.5968 17.0749 24.7801V25.7068ZM19.0249 27.5603H20.9749V34.0473H19.0249V27.5603ZM28.1568 27.6529C26.2919 29.3379 25.1372 31.6114 24.9091 34.0473H22.9249V27.5603H23.8999C24.4785 27.5603 25.044 27.3973 25.525 27.0917C26.006 26.7863 26.3809 26.352 26.6022 25.8441C26.8237 25.336 26.8816 24.777 26.7688 24.2377C26.6559 23.6984 26.3773 23.203 25.9682 22.8142C25.5592 22.4254 25.038 22.1606 24.4706 22.0533C23.9032 21.9461 23.315 22.0011 22.7806 22.2116C22.2461 22.422 21.7893 22.7783 21.4679 23.2355C21.1465 23.6927 20.9749 24.2303 20.9749 24.7801V25.7068H19.0249V24.7801C19.0249 24.2303 18.8534 23.6927 18.532 23.2355C18.2106 22.7783 17.7537 22.422 17.2193 22.2116C16.6848 22.0011 16.0967 21.9461 15.5293 22.0533C14.9619 22.1606 14.4407 22.4254 14.0317 22.8142C13.6226 23.203 13.344 23.6984 13.2312 24.2377C13.1183 24.777 13.1762 25.336 13.3976 25.8441C13.6189 26.352 13.9939 26.7863 14.4749 27.0917C14.9559 27.3973 15.5215 27.5603 16.0999 27.5603H17.0749V34.0473H15.0908C14.8627 31.6114 13.708 29.3379 11.8431 27.6529C10.6753 26.5536 9.75815 25.2374 9.14858 23.7866C8.5391 22.3359 8.25021 20.7813 8.29994 19.2197C8.29994 16.2704 9.53263 13.4418 11.7268 11.3562C13.921 9.27071 16.8969 8.09905 19.9999 8.09905C23.103 8.09905 26.079 9.27071 28.2731 11.3562C30.4672 13.4418 31.6999 16.2704 31.6999 19.2197C31.7497 20.7813 31.4609 22.3359 30.8513 23.7866C30.2417 25.2374 29.3245 26.5536 28.1568 27.6529ZM22.9249 25.7068V24.7801C22.9249 24.5968 22.9822 24.4177 23.0892 24.2652C23.1964 24.1129 23.3487 23.994 23.5268 23.9239C23.705 23.8537 23.901 23.8354 24.0902 23.8712C24.2793 23.9069 24.453 23.9952 24.5894 24.1248C24.7258 24.2544 24.8186 24.4195 24.8562 24.5993C24.8938 24.7791 24.8745 24.9654 24.8007 25.1348C24.7269 25.3041 24.6019 25.4488 24.4416 25.5507C24.2813 25.6525 24.0928 25.7068 23.8999 25.7068H22.9249Z" fill="white"/>
</g>
<defs>
<clipPath id="clip0_30_91">
<rect width="39" height="43" fill="white" transform="translate(0.5 0.5)"/>
</clipPath>
</defs>
</svg>
