<svg width="44" height="44" viewBox="0 0 44 44" fill="none" xmlns="http://www.w3.org/2000/svg">
<g clip-path="url(#clip0_30_102)">
<path d="M38.6274 0.582764C31.5217 0.582764 21.9872 5.45775 15.5844 13.839H10.2766C6.44122 13.839 4.243 16.7017 2.72947 19.7291L0.703247 23.7812H5.48677H10.2766L15.2477 28.7523L20.2188 33.7234V38.5132V43.2968L24.2709 41.2709C27.2983 39.757 30.161 37.5588 30.161 33.7234V28.4156C38.5422 22.0128 43.4172 12.4783 43.4172 5.37258V0.582764H38.6274ZM30.161 10.525C31.9913 10.525 33.475 12.0087 33.475 13.839C33.475 15.6694 31.9913 17.1531 30.161 17.1531C28.3306 17.1531 26.8469 15.6694 26.8469 13.839C26.8469 12.0087 28.3306 10.525 30.161 10.525ZM8.61955 30.4094L6.96252 32.0664C4.5691 34.4598 3.64846 40.3516 3.64846 40.3516C3.64846 40.3516 9.27574 39.6954 11.9336 37.0375L13.5907 35.3805L8.61955 30.4094Z" fill="white"/>
<path d="M8.54465 30.2166L13.7582 35.4297L12.0021 37.2519L10.9602 38.2938L9.39722 39.075L6.5316 40.1165L4.96846 40.3766L3.53558 40.6368L3.27504 40.6367L3.92567 37.771L4.30892 36.7308L4.6989 35.5608L4.9671 34.9054L5.61808 33.4726L6.52963 32.1702L8.54465 30.2166Z" fill="#00FA91"/>
</g>
<defs>
<clipPath id="clip0_30_102">
<rect width="43" height="43" fill="white" transform="translate(0.5 0.5)"/>
</clipPath>
</defs>
</svg>
