<svg width="70" height="44" viewBox="0 0 70 44" fill="none" xmlns="http://www.w3.org/2000/svg">
<g clip-path="url(#clip0_30_85)">
<path d="M58.4673 9.8877C57.1322 8.77541 55.9083 9.49719 55.1039 10.1375C50.9422 13.449 47.4364 16.0439 43.6786 18.9022C39.543 22.0479 35.2664 25.3009 30.6759 28.9904C27.1855 31.7956 26.3742 35.6418 28.4493 39.5429C29.0294 40.8162 30.3907 41.945 32.1857 42.6408C33.0777 42.9964 34.0276 43.1825 34.9872 43.1896C37.4793 43.1896 39.7776 41.8427 41.5391 39.2729C45.0655 34.1277 48.0457 29.6026 51.2008 24.8116C53.6631 21.0726 55.8295 17.5671 58.6463 13.4C59.5433 12.073 59.4748 10.7272 58.4673 9.8877Z" fill="#00FA91"/>
<path d="M35.0013 7.78154C38.5418 8.09361 41.9852 9.10956 45.1315 10.7704C45.5952 11.0154 46.0534 11.2766 46.4983 11.5512C46.9512 11.1931 47.4041 10.8323 47.8543 10.4742C49.6874 9.01476 51.5214 7.55715 53.3563 6.10133C51.7712 5.10724 50.1076 4.24541 48.3823 3.5245C48.05 3.38447 47.715 3.24715 47.3773 3.1179C42.1682 1.10301 36.5493 0.392028 31.0056 1.04633C25.4619 1.70064 20.1599 3.70057 15.5573 6.87351C10.9547 10.0465 7.18978 14.2971 4.58743 19.2585C1.98508 24.22 0.623512 29.7432 0.620239 35.3514H3.70218C4.01475 31.2853 5.12598 27.3218 6.97172 23.6896C8.76498 20.1707 11.2332 17.0429 14.2344 14.4862C17.1392 12.0122 20.5029 10.1407 24.1314 8.97975C27.6404 7.86281 31.3348 7.45556 35.0013 7.78154Z" fill="white"/>
<path d="M69.3797 35.3513C69.3797 35.1278 69.377 34.9043 69.3717 34.6808C69.3789 34.5868 69.3807 34.4924 69.377 34.3981C69.3234 33.0572 69.2403 31.7082 69.0554 30.378C68.2753 24.7203 66.0911 19.3506 62.7039 14.7634L60.1955 18.4766C59.0753 20.1352 57.9479 21.8047 56.8134 23.4849C57.147 24.2784 57.4386 25.0891 57.6871 25.9136C58.6022 28.9694 58.9073 32.1767 58.5849 35.3513H69.3797Z" fill="white"/>
</g>
<defs>
<clipPath id="clip0_30_85">
<rect width="69" height="43" fill="white" transform="translate(0.5 0.5)"/>
</clipPath>
</defs>
</svg>
