<?xml version="1.0" encoding="utf-8"?><svg viewBox="0 0 256 250" xmlns="http://www.w3.org/2000/svg" xmlns:xlink="http://www.w3.org/1999/xlink"><style>:root>svg{display:none}:root>svg:target{display:block}</style><svg fill="none" viewBox="0 0 70 44" id="adaptive" xmlns="http://www.w3.org/2000/svg"><path d="M32.1 25.18H9.795V4.36H46.97V2.469c0-1.135-.743-1.892-1.859-1.892H7.936c-1.116 0-1.86.757-1.86 1.892V25.18c-.743 0-1.486.378-1.672 1.135L.686 35.778C.5 36.346.5 37.103.872 37.481c.372.379.93.947 1.487.947H32.1V25.18z" fill="#fff"/><g clip-path="url(#aclip0_30_78)"><path d="M67.362 20.574H55.329a.92.92 0 00-.654.277.954.954 0 00-.272.665V42.25c.001.25.099.49.272.666a.92.92 0 00.654.277h12.033c.245-.001.48-.1.654-.277a.954.954 0 00.271-.666V21.516a.954.954 0 00-.272-.665.92.92 0 00-.653-.277zm-7.405 1.413h2.777c.122 0 .24.05.327.139a.477.477 0 01-.15.77.45.45 0 01-.177.034h-2.777a.46.46 0 01-.327-.139.477.477 0 01-.136-.332.483.483 0 01.138-.331.467.467 0 01.325-.14zm6.655 16.493H56.079V25.286h10.533V38.48z" fill="#00FA91"/><path d="M36.584 12.162h21.333v7.222h3.047V9.06c0-.407-.078-.81-.231-1.187a3.106 3.106 0 00-.661-1.007 3.043 3.043 0 00-.989-.673 3 3 0 00-1.166-.236H36.584a3 3 0 00-1.167.236c-.37.156-.706.385-.989.673a3.152 3.152 0 00-.892 2.194v31.03c0 .407.079.811.232 1.188.153.376.377.718.66 1.006.283.288.62.517.99.673a3 3 0 001.166.236h16.403V36.21H36.584V12.162zm8.38-3.878h4.572c.202 0 .395.082.538.227a.783.783 0 010 1.096.755.755 0 01-.538.228h-4.572a.75.75 0 01-.54-.227.776.776 0 01-.223-.549.788.788 0 01.224-.549.76.76 0 01.54-.226z" fill="#fff"/></g><defs><clipPath id="aclip0_30_78"><path fill="#fff" transform="translate(32.323 5.648)" d="M0 0h37.177v37.852H0z"/></clipPath></defs></svg><svg fill="none" viewBox="0 0 29 23" id="arrowRight" xmlns="http://www.w3.org/2000/svg"><path d="M2 9.846a1.5 1.5 0 000 3v-3zm26.06 2.56a1.5 1.5 0 000-2.12L18.516.738a1.5 1.5 0 10-2.122 2.122l8.486 8.485-8.486 8.485a1.5 1.5 0 102.122 2.122l9.546-9.546zM2 12.847h25v-3H2v3z" fill="#fff"/></svg><svg fill="none" viewBox="0 0 7 12" id="arrowSlideLeft" xmlns="http://www.w3.org/2000/svg"><path d="M6 1L1 6l5 5"/></svg><svg fill="none" viewBox="0 0 7 12" id="arrowSlideRight" xmlns="http://www.w3.org/2000/svg"><path d="M1 1l5 5-5 5"/></svg><svg viewBox="0 0 38 102" id="arrowsBottom" xmlns="http://www.w3.org/2000/svg"><path d="M7 1.13a1 1 0 00-2 0h2zm-1 99.907l5.774-10H.226l5.774 10zM5 1.13v90.907h2V1.13H5zM20 10.122v72.931M33 1.13a1 1 0 10-2 0h2zm-1 99.907l5.773-10H26.226l5.774 10zM31 1.13v90.907h2V1.13h-2z"/></svg><svg viewBox="0 0 48 48" id="codepen" xmlns="http://www.w3.org/2000/svg"><path d="M47.982 16.419c-.005-.032-.012-.06-.017-.09a2.064 2.064 0 00-.036-.173c-.008-.034-.022-.067-.032-.1a2.531 2.531 0 00-.053-.15 1.027 1.027 0 00-.046-.1 1.065 1.065 0 00-.071-.137c-.018-.033-.039-.064-.059-.096a2.025 2.025 0 00-.261-.327c-.026-.027-.052-.056-.08-.08a3.42 3.42 0 00-.118-.099c-.031-.024-.061-.048-.093-.07l-.034-.026L25.144.346a2.063 2.063 0 00-2.288 0L.919 14.971l-.034.026a1.853 1.853 0 00-.21.17c-.028.023-.056.052-.082.079-.037.036-.071.074-.103.112a1.326 1.326 0 00-.157.215l-.06.096a1.664 1.664 0 00-.07.136 1.787 1.787 0 00-.099.25c-.011.034-.023.067-.032.101-.015.056-.025.114-.036.173-.006.03-.013.058-.017.09-.012.087-.019.177-.019.268v14.625c0 .09.007.18.02.27.003.029.01.059.016.089.01.059.021.115.036.173.009.034.021.067.031.1.017.05.034.1.054.151.014.034.03.066.045.1l.071.138a3.298 3.298 0 00.145.219c.023.031.047.061.072.09.032.037.066.076.103.11a1.853 1.853 0 00.292.25c.012.009.022.019.034.027l21.937 14.625a2.061 2.061 0 002.288 0l21.938-14.625.035-.026c.031-.022.061-.046.092-.07a3.42 3.42 0 00.118-.1c.028-.025.054-.052.08-.08a1.812 1.812 0 00.261-.326c.02-.032.041-.063.059-.094.027-.047.05-.092.07-.138.017-.034.034-.066.047-.1.02-.05.036-.101.053-.151.01-.033.024-.066.032-.1.016-.058.026-.114.036-.173l.017-.088c.012-.09.018-.18.018-.27V16.688c0-.092-.006-.182-.018-.269zM26.062 5.917L42.224 16.69l-7.218 4.829-8.944-5.982v-9.62zm-4.125 0v9.62l-8.941 5.982-7.22-4.829L21.938 5.917zM4.125 20.548L9.286 24l-5.161 3.452v-6.904zm17.813 21.535L5.776 31.31l7.22-4.828 8.941 5.981v9.62zM24 28.88L16.706 24 24 19.12 31.296 24 24 28.88zm2.063 13.203v-9.62l8.943-5.98 7.218 4.827-16.161 10.773zm17.812-14.631L38.715 24l5.16-3.452v6.904z" fill-rule="evenodd"/></svg><svg viewBox="0 0 24 24" id="codewars" xmlns="http://www.w3.org/2000/svg"><path d="M.76 12.2l-.08-.04c-.18-.1-.32-.25-.42-.44-.14-.26-.2-.5-.2-.75l.02-.13c0-.2.05-.38.14-.55l.08-.15c.04-.08.1-.15.15-.22.06-.07.07-.16.05-.24l-.05-.16c-.06-.2-.1-.4-.1-.6L.32 8.8c0-.22.06-.44.2-.6l.1-.13c.07-.1.18-.16.3-.2.1-.03.17-.13.18-.25l.02-.34c0-.27.13-.52.33-.7l.24-.18c.05-.05.1-.1.14-.18.05-.06.06-.14.05-.2-.02-.1 0-.13.05-.14.16.06.26.04.33-.04l.13-.17.36-.4a.4.4 0 00.08-.42l-.12-.26c-.02-.06 0-.13.05-.15.13 0 .22.05.26.13l.04.07c.06.12.2.18.3.13.22-.08.4-.1.57-.1h.32c.22 0 .4-.15.44-.38.04-.28.14-.5.28-.65.15-.17.32-.3.52-.4.26-.14.42-.34.47-.6.07-.32.24-.55.47-.7l.76-.43.22-.13c.13-.08.25-.18.35-.3l.2-.24c.1-.1.2-.17.32-.2.1-.03.24-.05.36-.04l.4.03c.2 0 .36.05.52.12l.1.05c.1.04.2.02.25-.05L10 .7l.43-.45c.1-.1.22-.14.35-.12.13.02.26.07.38.13.18.1.33.14.5.14h.1c.22 0 .44.03.66.08l.15.04c.15.04.3-.02.4-.14.03-.05.1-.06.14-.02.03.02.04.04.05.07.02.2.14.35.3.4l.16.05a.8.8 0 01.42.3c.1.15.22.3.36.4l.1.1c.1.1.24.14.38.13h.59c.24 0 .47.04.7.14.22.1.45.12.66.04.22-.07.45-.1.68-.07l.43.07c.2.02.4.12.52.27l.05.05c.1.1.2.23.3.37.06.13.2.2.34.2h.62c.15 0 .3.03.42.1.13.1.24.2.34.3l.1.13c.12.14.18.33.17.53 0 .16.12.3.28.3l.2.02c.14 0 .26.1.33.23l.1.2.26.58c.04.1.05.2.04.28 0 .1.03.18.1.22l.1.07c.13.1.2.25.18.42l-.07.47-.02.2c-.02.1.03.23.12.3.15.1.22.23.23.38v.2c0 .1-.02.22-.1.3-.06.08-.1.18-.1.3l.03.23c0 .16.1.3.2.4.14.1.22.26.24.42.04.25.05.45.05.65v.23c0 .08 0 .16.03.24.02.07.07.14.13.18l.2.15c.2.13.34.3.42.53.1.22.13.45.13.68v.08c0 .18-.02.37-.08.54a.71.71 0 00.03.5c.08.14.13.3.15.47.04.2.02.4-.05.56l-.02.07c-.05.12-.13.23-.23.32-.1.1-.2.16-.26.23-.06.06-.1.16-.07.25l.03.14c.05.2.05.4 0 .58v.08c-.04.15-.1.28-.16.4-.07.13-.17.23-.3.3l-.15.1a.26.26 0 00-.12.22c0 .1-.04.2-.1.26l-.15.2c-.1.13-.23.24-.37.3-.14.1-.26.2-.35.3-.1.12-.18.26-.22.4-.04.18-.18.28-.33.28h-.54c-.14 0-.27.1-.33.22-.07.16-.14.27-.23.37a.8.8 0 00-.2.36c-.02.12-.12.2-.22.16-.13-.06-.26 0-.32.1-.12.2-.24.35-.37.48l-.07.06c-.13.1-.3.18-.45.18-.18 0-.27.08-.3.2-.03.1-.05.23-.06.34-.02.12-.06.23-.1.33l-.05.06c-.1.15-.18.3-.28.43l-.04.06c-.13.17-.3.3-.5.35a2 2 0 01-.66.1h-.14c-.1 0-.2.06-.27.16l-.06.1-.06.12-.13.22c-.1.18-.25.3-.45.36-.2.05-.43.07-.64.06l-.16-.02c-.14 0-.27-.04-.4-.1-.1-.04-.24 0-.3.1-.1.14-.22.22-.35.26l-.3.1c-.2.05-.42.05-.63 0l-.16-.05c-.1 0-.2-.05-.28-.1a.54.54 0 00-.3-.06l-.13.02c-.2.02-.38 0-.56-.05l-.27-.06a.57.57 0 01-.3-.23.393.393 0 00-.3-.2H9.9c-.2-.03-.38-.1-.5-.25L9 22.5l-.14-.12-.22-.16-.13-.1c-.15-.1-.33-.18-.52-.2l-.6-.1c-.06 0-.1-.02-.16-.03L7 21.74c-.1-.02-.2-.1-.27-.2-.06-.1-.17-.14-.27-.1-.2.08-.36.1-.52.13H5.8c-.26.02-.5-.02-.74-.13-.24-.1-.4-.25-.55-.44-.12-.17-.3-.3-.52-.34l-.28-.06c-.2-.04-.4-.12-.58-.24-.2-.14-.3-.27-.38-.43-.08-.15-.13-.32-.14-.5v-.08a.495.495 0 00-.35-.43c-.23-.07-.4-.17-.55-.3a.71.71 0 01-.22-.52l.02-.44c0-.17-.05-.32-.17-.43a.62.62 0 01-.2-.43l-.03-.36a5.29 5.29 0 00-.13-.78c-.06-.23.03-.46.22-.57l.07-.05c.1-.07.14-.2.08-.32l-.08-.1a.75.75 0 00-.3-.2c-.08-.02-.1-.1-.1-.15l.1-.12c.06-.07.05-.18 0-.24a.455.455 0 01-.13-.28l-.02-.7c0-.14.02-.28.06-.42.04-.12 0-.26-.12-.32zm9.9-1.32c.07-.07.06-.2 0-.25a.973.973 0 01-.23-.27l-.1-.16a1.46 1.46 0 00-.26-.34l-.02-.02a.86.86 0 01-.23-.3c-.05-.1-.05-.2 0-.3l.06-.1c.06-.1.1-.24.1-.36v-.04c0-.1-.04-.2-.1-.3-.04-.08-.08-.18-.1-.28V8.1c-.03-.12 0-.25.08-.35.08-.13.14-.25.17-.4v-.02c.04-.1.02-.23-.04-.33s-.08-.2-.04-.32l.07-.2c.06-.18.15-.34.27-.48l.14-.15.1-.12.06-.06c.06-.06.07-.16.02-.24-.05-.1-.08-.2-.06-.3l.02-.14c.03-.2.1-.4.23-.56l.04-.04c.15-.2.34-.33.56-.4l.27-.1c.12-.04.2-.17.2-.3 0-.16.05-.3.14-.43l.05-.05c.1-.17.22-.34.3-.52l.07-.13c.02-.03.03-.07.03-.1 0-.17-.1-.32-.26-.33L11.76 2c-.25-.02-.5 0-.74 0l-.85.1c-.13 0-.23.1-.24.24 0 .14-.1.26-.22.3l-.36.1-.1.03-.3.1c-.22.07-.4.23-.5.45l-.08.13c-.1.22-.27.4-.48.53-.2.13-.3.34-.32.58v.1c-.02.2-.08.4-.2.54l-.05.08c-.08.1-.1.23-.05.34.05.12.08.25.07.38v.53c0 .14-.1.26-.2.3-.14.05-.23.16-.27.3l-.05.2c-.04.2.03.4.2.52.16.12.26.3.3.52v.18c.03.2.14.4.32.5.18.12.32.3.4.5l.05.16c.08.22.26.35.46.37h.06c.18 0 .34.1.44.26.1.16.26.27.44.3l.28.08c.17.05.33.14.46.27l.02.02c.1.08.26.07.35-.04l.07-.08zm1.14-.92c.1.06.2.03.24-.06l.03-.05c.07-.14.16-.28.26-.4l.2-.3c.03 0 .04-.02.05-.04l.24-.32c.1-.1.22-.17.36-.17.13 0 .24-.07.3-.2.04-.14.1-.27.22-.38l.05-.06c.1-.1.2-.15.3-.2.13-.02.25-.04.37-.04h.3c.12 0 .22-.05.28-.15.06-.1.15-.17.25-.22l.1-.04c.16-.07.34-.12.52-.14l.2-.02c.12 0 .25 0 .37.07.1.07.23.06.33-.02l.07-.04c.15-.1.32-.18.5-.2h.02c.2-.04.38-.04.58-.03h.1c.2.03.37.1.5.25l.03.04c.1.1.26.18.4.18h.17c.05 0 .1-.02.13-.07.03-.03.08-.06.13-.06h.1c.14 0 .27.04.4.08l.17.07c.16.05.33.1.5.12h.12c.08 0 .13-.05.13-.12 0-.1-.02-.2-.07-.28L20.68 7c-.08-.13-.14-.27-.2-.4l-.02-.05c-.05-.1-.05-.2 0-.3V6.2a.17.17 0 00-.1-.2h-.08a.796.796 0 01-.4-.27l-.1-.1c-.1-.1-.16-.25-.2-.4-.05-.13-.16-.23-.3-.23h-.42a.552.552 0 01-.37-.22l-.04-.05c-.07-.1-.13-.22-.17-.34-.05-.1-.16-.16-.26-.13l-.12.04c-.2.07-.4.1-.6.08l-.16-.02c-.17 0-.33-.07-.46-.17l-.1-.07c-.08-.06-.16-.1-.25-.14-.1-.04-.18-.02-.24.05l-.05.06c-.1.1-.24.18-.38.2l-.54.03c-.1 0-.2.05-.27.12-.08.07-.17.12-.27.14h-.02c-.1 0-.2.07-.3.14v.02c-.1.1-.23.15-.36.15l-.04.02c-.12 0-.24 0-.36.03h-.12c-.17.03-.3.17-.34.35l-.04.23a1 1 0 01-.2.43c-.1.12-.22.2-.37.2H12.26c-.1.02-.2.13-.18.25.02.17 0 .32-.03.47l-.04.17c-.04.15-.14.27-.27.32l-.06.03h-.02c-.06.04-.1.13-.05.2.06.1.08.2.07.3l-.03.32c0 .12-.05.23-.1.33-.06.1-.06.2-.02.3l.1.22c.05.1.06.2.03.32-.03.1-.05.2-.04.3 0 .1.06.2.14.24l.02.02zm7.9 7.23c.1.1.25.14.37.06l.2-.13c.1-.07.18-.17.22-.3v-.02l.1-.3.06-.1.04-.1.04-.07c.04-.08.1-.14.2-.17l.04-.02c.08-.02.13-.1.13-.18 0-.1.05-.18.1-.25l.08-.07.2-.26v-.02c.06-.08.1-.17.12-.27.02-.1 0-.2-.04-.3l-.02-.04a.92.92 0 01-.07-.26l-.03-.28-.03-.3c0-.1.04-.2.1-.3a.97.97 0 00.16-.28v-.04l.02-.02c.02-.1-.03-.2-.12-.2-.1-.05-.2-.13-.23-.25l-.03-.06c-.05-.18-.08-.36-.08-.54l.02-.5v-.03a.3.3 0 00-.3-.3h-.02c-.2 0-.36-.06-.5-.2l-.08-.1-.2-.23-.26-.3c-.1-.14-.2-.26-.33-.38-.1-.1-.25-.2-.4-.22l-.2-.03c-.1-.02-.23-.07-.34-.14-.08-.06-.2-.04-.28.04l-.13.14-.06.04c-.07.02-.14-.02-.17-.1a.502.502 0 01.02-.38v-.06c0-.07-.06-.12-.12-.1h-.16c-.18 0-.36-.02-.53-.1l-.1-.04a.764.764 0 00-.33-.08c-.1 0-.2.02-.3.08l-.04.03c-.12.08-.26.12-.4.13h-.33c-.15 0-.3.05-.4.13-.13.08-.27.13-.42.16l-.27.04c-.12.03-.25.08-.36.17-.1.1-.24.16-.37.2l-.05.02a.74.74 0 00-.4.3l-.12.12a.27.27 0 000 .32c.06.1.18.13.3.1l.15-.06c.08-.03.17 0 .24.04.06.05.15.08.24.07l.25-.03c.14 0 .28 0 .42.04.15.05.28.1.4.2s.25.14.4.16c.15.02.3.05.44.1l.1.02c.1.03.18.1.24.2.05.08.1.2.1.3v.03c0 .12.1.2.2.2h.06c.16 0 .33.02.5.07l.07.03c.1.04.2.1.27.2.08.1.13.2.16.3l.03.14c.03.15.04.3.04.46v.05c0 .1.07.2.18.24.1.02.22.06.33.12l.05.02c.13.08.26.18.36.3l.05.07c.13.15.2.34.2.53v.07c0 .15-.03.3-.08.44-.04.12 0 .26.13.3l.07.05c.15.06.28.17.38.3.1.15.14.32.14.5v.3c-.02.1-.05.18-.1.25s-.05.17 0 .24l.06.1zm-6.4-5.12h-.02c-.04 0-.06.05-.05.1l.04.2c.04.16.06.32.08.48.02.16.1.3.22.4h.04c.15.12.24.3.25.48v.5c-.02.1 0 .2.06.28l.05.05c.1.12.14.26.15.4l.03.55c0 .13-.08.24-.2.26l-.1.02c-.07 0-.1.08-.1.15 0 .08.03.17.06.25v.02c.03.1.04.2.03.3l-.04.27c-.04.2-.1.38-.2.56l-.07.12a.43.43 0 01-.2.2c-.1.04-.17.12-.2.22l-.08.36c-.05.2-.14.4-.26.6h-.02c-.12.16-.27.3-.45.4l-.12.08-.3.15c-.1.04-.16.13-.18.24l-.05.33c-.03.2-.1.37-.24.5l-.13.15-.15.15L11 21c-.12.14-.3.2-.5.17l-.36-.07-.33-.04h-.09c-.04.04-.05.1-.02.16.07.12.18.2.3.2l.22.04c.1 0 .22.05.32.1.1.07.2.12.32.15h.02c.13.05.27.06.4.05l.15-.02c.17-.02.33 0 .47.06l.12.04c.05.02.13 0 .18-.05.06-.06.12-.1.2-.13l.08-.02c.13-.04.26-.06.4-.06h.08c.12 0 .23.02.33.08l.04.02c.07.03.15 0 .2-.06.03-.07.1-.14.17-.2l.25-.17.16-.1.08-.05c.1-.07.24-.1.36-.1l.36-.03c.14-.02.26-.12.3-.26.04-.15.1-.3.2-.43s.2-.24.3-.34c.13-.1.26-.15.4-.16h.08c.16-.03.28-.18.27-.34v-.67c.02-.1.06-.23.12-.33l.2-.3.08-.1c.06-.05.1-.12.17-.2l.1-.13a.27.27 0 00-.02-.32c-.1-.1-.15-.24-.17-.38v-.04c-.02-.16-.02-.33.03-.5v-.05c.05-.13.12-.26.2-.38.08-.1.07-.24-.03-.32l-.17-.15a.74.74 0 01-.24-.48l-.02-.2c0-.06 0-.13-.02-.2l-.02-.15a.573.573 0 00-.26-.4l-.07-.02c-.1-.06-.2-.15-.28-.27-.08-.1-.12-.24-.15-.38l-.03-.17c0-.06-.04-.1-.1-.13l-.16-.05-.32-.1c-.1-.02-.2-.1-.27-.17h-.02a.143.143 0 00-.22-.02l-.1.1c-.02.03-.04.04-.07.03-.06 0-.1-.05-.08-.1a.454.454 0 00-.17-.42l-.13-.1-.3-.2c-.08-.03-.2 0-.24.1l-.04.06c0 .02-.03.03-.04.04-.04 0-.1 0-.1-.05l-.03-.05c-.03-.06-.1-.1-.16-.12zm-1.2 1l-.05-.05c-.05-.04-.1-.03-.15.02-.07.12-.13.25-.16.38v.02c-.03.13-.15.22-.27.2H11.35c-.14 0-.25.12-.25.26 0 .18-.06.36-.17.5l-.06.06c-.1.13-.25.22-.4.27l-.08.02c-.1.03-.18.1-.2.22 0 .1-.06.2-.14.28l-.1.08c-.12.13-.3.2-.48.22l-.5.05c-.16 0-.3.1-.4.25-.1.15-.25.25-.4.27l-.22.02c-.16.02-.33.02-.5-.02l-.1-.02-.27-.07c-.1-.03-.18 0-.24.07l-.1.13a.58.58 0 01-.5.2l-.65-.08c-.1 0-.18-.05-.27-.1-.1-.06-.17-.13-.24-.2l-.25-.3c-.03-.02-.08-.03-.13-.02l-.14.06-.56.14c-.1.03-.23 0-.33-.06-.1-.08-.22-.1-.34-.1H3.2c-.12.03-.2.16-.16.28l.04.2c.03.1.02.22-.03.32s-.04.2.03.3l.06.08c.08.12.2.22.3.32.1.1.2.2.28.33l.15.27c.08.14.2.22.36.22.15 0 .3.05.42.15l.3.28c.08.07.2.08.28.02l.05-.02c.06 0 .1.04.1.1v.05c0 .13.1.25.23.3l.45.1c.16.05.32.1.47.2h.08c.08 0 .15-.07.14-.16v-.35c0-.1.04-.2.12-.24l.05-.02c.05.02.1.06.08.1v.17c0 .13.04.25.13.34.1.1.23.12.34.08.12-.05.24-.06.37-.05l.37.02c.18.02.35 0 .5-.07.18-.06.33-.14.47-.25l.06-.04.3-.27c.1-.1.23-.15.35-.15h.4c.2-.02.38-.2.4-.4l.04-.2c0-.13.06-.25.15-.35.1-.1.2-.16.3-.2l.12-.05c.17-.07.3-.22.36-.4l.06-.24c.05-.2.15-.4.3-.53l.02-.02c.12-.1.14-.3.06-.44l-.03-.07a.42.42 0 01-.03-.38c.05-.14.1-.26.18-.38l.1-.14c.04-.08.04-.2-.02-.27a.478.478 0 01-.1-.28l-.02-.14v-.34c.02-.1 0-.23-.03-.33l-.04-.12zm-1.43-.76v-.03c0-.1-.06-.16-.14-.16h-.26c-.1.02-.2.02-.28 0h-.45c-.23 0-.45-.04-.67-.1l-.24-.06-.2-.06-.45-.15a.849.849 0 01-.53-.45l-.05-.1a.337.337 0 00-.37-.2c-.17 0-.34 0-.5-.08l-.12-.05c-.23-.1-.4-.3-.4-.57l-.04-.27c-.03-.14-.12-.27-.24-.32-.14-.06-.27-.14-.4-.23l-.05-.03a1.1 1.1 0 01-.35-.47l-.02-.06a.94.94 0 01-.02-.5l.02-.06c.04-.13.05-.26.05-.4a.47.47 0 00-.14-.33l-.14-.13a.726.726 0 01-.27-.53c-.02-.22-.02-.43.02-.64v-.06a.2.2 0 00-.2-.2H4.2c-.13 0-.24.08-.3.2-.05.14-.13.25-.22.36l-.04.05-.2.2-.1.1c-.1.1-.16.25-.18.4-.02.15-.06.3-.12.44l-.02.05c-.05.12-.13.23-.23.3-.1.08-.17.2-.17.32l-.02.46c0 .2-.03.4-.1.6l-.02.08c-.05.13 0 .27.12.33l.42.18.04.02c.03 0 .04.02.05.05.03.04 0 .1-.03.1l-.1.05c-.06.02-.1.08-.12.15l-.02.1v.02l-.1.56c-.02.08-.02.17-.02.26 0 .08.05.15.12.18l.22.1c.1.06.22.13.3.2l.1.08c.03.04.08.08.12.1l.04.04c.07.06.12.14.14.23l.1.45c0 .12.1.22.2.25l.16.05s.03 0 .05.02l.2.06c.16.05.3.14.42.26.12.1.24.23.34.37l.04.04c.08.1.2.15.32.12s.25-.04.38-.04h.15c.1 0 .23.03.34.1.1.06.23.1.35.15h.03c.12.05.25.03.35-.04.1-.08.23-.12.36-.12l.47.03c.1 0 .2-.02.25-.1h.02l.17-.16.05-.05c.08-.1.2-.14.32-.15h.45c.12 0 .23-.1.28-.2.05-.1.15-.18.27-.2l.2-.04c.08 0 .15-.07.18-.16.03-.1.08-.18.15-.24l.16-.16c.1-.1.15-.2.17-.32z"/></svg><svg fill="none" viewBox="0 0 40 44" id="creative" xmlns="http://www.w3.org/2000/svg"><g clip-path="url(#hclip0_30_91)"><path d="M20 4.392c.259 0 .507-.097.69-.271a.904.904 0 00.285-.656V1.612a.904.904 0 00-.286-.655A1.001 1.001 0 0020 .685c-.259 0-.507.098-.69.272a.904.904 0 00-.285.655v1.853c0 .246.103.482.286.656.182.174.43.271.689.271zM38.525 18.293h-1.95c-.259 0-.507.098-.69.272a.904.904 0 00-.285.655c0 .246.103.482.286.655.182.174.43.272.689.272h1.95c.259 0 .507-.098.69-.272a.904.904 0 00.285-.655.904.904 0 00-.286-.655 1.002 1.002 0 00-.689-.272zM3.425 18.293h-1.95c-.259 0-.507.098-.69.272a.904.904 0 00-.285.655c0 .246.103.482.286.655.182.174.43.272.689.272h1.95c.259 0 .507-.098.69-.272a.904.904 0 00.285-.655.904.904 0 00-.286-.655 1.002 1.002 0 00-.689-.272zM7.59 8.735c.184.169.43.262.686.26a1 1 0 00.681-.271.905.905 0 00.286-.648.903.903 0 00-.274-.651L7.59 6.115a1.003 1.003 0 00-.686-.261c-.255.002-.5.1-.68.271a.905.905 0 00-.286.648.903.903 0 00.274.652l1.378 1.31zM32.41 29.704a.983.983 0 00-.317-.201 1.02 1.02 0 00-1.062.201.89.89 0 000 1.31l1.379 1.312c.184.168.43.262.686.26.255-.002.5-.1.68-.272a.905.905 0 00.286-.647.903.903 0 00-.274-.652l-1.378-1.311zM32.41 6.114l-1.379 1.31a.927.927 0 00-.218.301.885.885 0 00-.007.717.925.925 0 00.213.304c.092.087.2.156.32.203a1.02 1.02 0 001.07-.214l1.38-1.31a.927.927 0 00.218-.301.89.89 0 00-.206-1.022.98.98 0 00-.32-.202 1.02 1.02 0 00-1.071.214zM7.59 29.704l-1.378 1.311a.926.926 0 00-.219.301.888.888 0 00.207 1.021 1.019 1.019 0 001.39-.011l1.379-1.31a.925.925 0 00.211-.301.889.889 0 00-.21-1.01 1.02 1.02 0 00-1.38 0z" fill="#00FA91"/><path d="M20 6.246c-3.62.003-7.089 1.371-9.648 3.804-2.559 2.432-3.998 5.73-4.002 9.17a12.62 12.62 0 00.998 5.29 13.17 13.17 0 003.135 4.475 8.162 8.162 0 011.974 2.664 7.804 7.804 0 01.718 3.186v1.992c.002.574.191 1.132.54 1.599.35.467.842.82 1.41 1.011v.17c0 .984.41 1.927 1.142 2.622a4.005 4.005 0 002.758 1.086h1.95c1.034 0 2.026-.39 2.758-1.086a3.616 3.616 0 001.142-2.621v-.17a2.915 2.915 0 001.41-1.012 2.688 2.688 0 00.54-1.599v-1.992a7.806 7.806 0 01.718-3.186 8.164 8.164 0 011.974-2.664 13.17 13.17 0 003.135-4.474c.711-1.68 1.05-3.481.998-5.291-.004-3.44-1.443-6.738-4.002-9.17-2.56-2.433-6.03-3.8-9.648-3.804zm.975 35.215h-1.95a2.003 2.003 0 01-1.379-.543 1.809 1.809 0 01-.571-1.31h5.85c0 .491-.206.963-.571 1.31a2.003 2.003 0 01-1.38.543zm2.925-3.707h-7.8c-.259 0-.507-.097-.69-.271a.904.904 0 01-.285-.655V35.9h9.75v.926a.904.904 0 01-.286.656c-.182.174-.43.271-.69.271zm-6.825-12.047H16.1c-.193 0-.381-.055-.542-.156a.94.94 0 01-.359-.416.884.884 0 01-.055-.536.913.913 0 01.267-.474.992.992 0 01.499-.254c.189-.036.385-.017.563.053.178.07.33.189.438.341a.894.894 0 01.164.515v.927zm1.95 1.853h1.95v6.487h-1.95V27.56zm9.132.093c-1.865 1.685-3.02 3.958-3.248 6.394h-1.984V27.56h.975c.579 0 1.144-.163 1.625-.468.481-.306.856-.74 1.077-1.248.222-.508.28-1.067.167-1.606a2.74 2.74 0 00-.8-1.424 2.975 2.975 0 00-1.498-.76 3.067 3.067 0 00-1.69.158c-.535.21-.992.566-1.313 1.023a2.684 2.684 0 00-.493 1.545v.927h-1.95v-.927c0-.55-.172-1.087-.493-1.545a2.898 2.898 0 00-1.313-1.023 3.067 3.067 0 00-1.69-.159 2.975 2.975 0 00-1.497.761 2.74 2.74 0 00-.8 1.424 2.652 2.652 0 00.166 1.606c.22.508.596.942 1.077 1.248a3.034 3.034 0 001.625.468h.975v6.487H15.09c-.228-2.436-1.383-4.71-3.248-6.394a11.358 11.358 0 01-2.694-3.866 10.886 10.886 0 01-.85-4.567c0-2.95 1.234-5.778 3.428-7.864C13.92 9.271 16.897 8.1 20 8.1c3.103 0 6.079 1.172 8.273 3.257 2.194 2.086 3.427 4.914 3.427 7.864a10.883 10.883 0 01-.849 4.567 11.36 11.36 0 01-2.694 3.866zm-5.232-1.946v-.927c0-.183.057-.362.164-.515a.967.967 0 01.438-.341c.178-.07.374-.089.563-.053.19.036.363.124.5.254.136.13.229.294.266.474a.885.885 0 01-.055.536.94.94 0 01-.36.416c-.16.102-.348.156-.541.156h-.975z" fill="#fff"/></g><defs><clipPath id="hclip0_30_91"><path fill="#fff" transform="translate(.5 .5)" d="M0 0h39v43H0z"/></clipPath></defs></svg><svg viewBox="0 0 24 24" id="eye" xmlns="http://www.w3.org/2000/svg"><path d="M12.015 7c4.751 0 8.063 3.012 9.504 4.636C20.118 13.473 16.806 17 12.015 17c-4.42 0-7.93-3.536-9.478-5.407C4.03 9.946 7.354 7 12.015 7zm0-2C4.446 5 0 11.551 0 11.551S4.835 19 12.015 19C19.748 19 24 11.551 24 11.551S19.709 5 12.015 5zM12 8a4 4 0 100 8 4 4 0 000-8zm-.004 3.999a1.446 1.446 0 11-2.044-2.046 1.446 1.446 0 012.044 2.046z"/></svg><svg viewBox="0 0 256 250" preserveAspectRatio="xMidYMid" id="github" xmlns="http://www.w3.org/2000/svg"><path d="M128.001 0C57.317 0 0 57.307 0 128.001c0 56.554 36.676 104.535 87.535 121.46 6.397 1.185 8.746-2.777 8.746-6.158 0-3.052-.12-13.135-.174-23.83-35.61 7.742-43.124-15.103-43.124-15.103-5.823-14.795-14.213-18.73-14.213-18.73-11.613-7.944.876-7.78.876-7.78 12.853.902 19.621 13.19 19.621 13.19 11.417 19.568 29.945 13.911 37.249 10.64 1.149-8.272 4.466-13.92 8.127-17.116-28.431-3.236-58.318-14.212-58.318-63.258 0-13.975 5-25.394 13.188-34.358-1.329-3.224-5.71-16.242 1.24-33.874 0 0 10.749-3.44 35.21 13.121 10.21-2.836 21.16-4.258 32.038-4.307 10.878.049 21.837 1.47 32.066 4.307 24.431-16.56 35.165-13.12 35.165-13.12 6.967 17.63 2.584 30.65 1.255 33.873 8.207 8.964 13.173 20.383 13.173 34.358 0 49.163-29.944 59.988-58.447 63.157 4.591 3.972 8.682 11.762 8.682 23.704 0 17.126-.148 30.91-.148 35.126 0 3.407 2.304 7.398 8.792 6.14C219.37 232.5 256 184.537 256 128.002 256 57.307 198.691 0 128.001 0zm-80.06 182.34c-.282.636-1.283.827-2.194.39-.929-.417-1.45-1.284-1.15-1.922.276-.655 1.279-.838 2.205-.399.93.418 1.46 1.293 1.139 1.931zm6.296 5.618c-.61.566-1.804.303-2.614-.591-.837-.892-.994-2.086-.375-2.66.63-.566 1.787-.301 2.626.591.838.903 1 2.088.363 2.66zm4.32 7.188c-.785.545-2.067.034-2.86-1.104-.784-1.138-.784-2.503.017-3.05.795-.547 2.058-.055 2.861 1.075.782 1.157.782 2.522-.019 3.08zm7.304 8.325c-.701.774-2.196.566-3.29-.49-1.119-1.032-1.43-2.496-.726-3.27.71-.776 2.213-.558 3.315.49 1.11 1.03 1.45 2.505.701 3.27zm9.442 2.81c-.31 1.003-1.75 1.459-3.199 1.033-1.448-.439-2.395-1.613-2.103-2.626.301-1.01 1.747-1.484 3.207-1.028 1.446.436 2.396 1.602 2.095 2.622zm10.744 1.193c.036 1.055-1.193 1.93-2.715 1.95-1.53.034-2.769-.82-2.786-1.86 0-1.065 1.202-1.932 2.733-1.958 1.522-.03 2.768.818 2.768 1.868zm10.555-.405c.182 1.03-.875 2.088-2.387 2.37-1.485.271-2.861-.365-3.05-1.386-.184-1.056.893-2.114 2.376-2.387 1.514-.263 2.868.356 3.061 1.403z"/></svg><svg viewBox="0 0 24 24" id="heart" xmlns="http://www.w3.org/2000/svg"><path d="M12 4.435C10.011-.964 0-.162 0 8.003 0 12.071 3.06 17.484 12 23c8.94-5.516 12-10.929 12-14.997C24-.115 14-.996 12 4.435z" stroke="#FA0069" stroke-width="2"/></svg><svg viewBox="0 0 89.758 89.758" id="insta" xmlns="http://www.w3.org/2000/svg"><path d="M58.255 23.88H31.503c-4.27 0-7.744 3.474-7.744 7.744v26.752c0 4.27 3.474 7.745 7.744 7.745h26.752c4.27 0 7.745-3.474 7.745-7.745V31.624c0-4.27-3.474-7.744-7.745-7.744zM44.879 58.906c-7.667 0-13.905-6.238-13.905-13.906 0-7.667 6.238-13.905 13.905-13.905 7.668 0 13.906 6.238 13.906 13.905 0 7.667-6.239 13.906-13.906 13.906zM59.232 33.97a3.294 3.294 0 01-3.291-3.29 3.294 3.294 0 013.291-3.29 3.294 3.294 0 013.29 3.29 3.294 3.294 0 01-3.29 3.29z"/><path d="M44.879 36.971c-4.426 0-8.03 3.602-8.03 8.028 0 4.428 3.604 8.031 8.03 8.031 4.428 0 8.029-3.603 8.029-8.031 0-4.425-3.602-8.028-8.029-8.028z"/><path d="M44.879 0C20.094 0 0 20.094 0 44.879c0 24.785 20.094 44.879 44.879 44.879 24.785 0 44.879-20.094 44.879-44.879C89.758 20.094 69.664 0 44.879 0zm26.996 58.376c0 7.511-6.109 13.62-13.62 13.62H31.503c-7.51 0-13.62-6.109-13.62-13.62V31.624c0-7.51 6.11-13.62 13.62-13.62h26.752c7.511 0 13.62 6.11 13.62 13.62v26.752z"/></svg><svg fill="none" viewBox="0 0 44 44" id="rocket" xmlns="http://www.w3.org/2000/svg"><g clip-path="url(#mclip0_30_102)"><path d="M38.627.583c-7.105 0-16.64 4.875-23.043 13.256h-5.307c-3.836 0-6.034 2.863-7.548 5.89L.703 23.781h9.574l4.97 4.971 4.972 4.971v9.574l4.052-2.026c3.027-1.514 5.89-3.712 5.89-7.548v-5.307c8.381-6.403 13.256-15.938 13.256-23.043V.583h-4.79zm-8.466 9.942a3.314 3.314 0 110 6.628 3.314 3.314 0 010-6.628zM8.62 30.409l-1.657 1.657c-2.394 2.394-3.315 8.286-3.315 8.286s5.628-.657 8.286-3.314l1.657-1.657-4.971-4.972z" fill="#fff"/><path d="M8.545 30.217l5.213 5.213-1.756 1.822-1.042 1.042-1.563.781-2.865 1.041-1.564.26-1.432.26h-.261l.65-2.865.384-1.04.39-1.17.268-.656.651-1.432.912-1.303 2.015-1.953z" fill="#00FA91"/></g><defs><clipPath id="mclip0_30_102"><path fill="#fff" transform="translate(.5 .5)" d="M0 0h43v43H0z"/></clipPath></defs></svg><svg fill="none" viewBox="0 0 70 44" id="speed" xmlns="http://www.w3.org/2000/svg"><g clip-path="url(#nclip0_30_85)"><path d="M58.467 9.888c-1.335-1.113-2.559-.39-3.363.25-4.162 3.311-7.668 5.906-11.425 8.764-4.136 3.146-8.413 6.399-13.003 10.088-3.49 2.806-4.302 6.652-2.227 10.553.58 1.273 1.942 2.402 3.737 3.098a7.719 7.719 0 002.801.549c2.492 0 4.79-1.347 6.552-3.917 3.526-5.145 6.507-9.67 9.662-14.461 2.462-3.74 4.629-7.245 7.445-11.412.897-1.327.829-2.673-.179-3.512z" fill="#00FA91"/><path d="M35.001 7.782a26.726 26.726 0 0110.13 2.988c.464.245.922.507 1.367.781.453-.358.906-.719 1.356-1.077a4164.15 4164.15 0 015.502-4.373 34.124 34.124 0 00-4.974-2.576 34.249 34.249 0 00-17.377-2.478 34.3 34.3 0 00-15.448 5.827 34.509 34.509 0 00-10.97 12.385A34.693 34.693 0 00.62 35.35h3.082a30.986 30.986 0 013.27-11.661 29.957 29.957 0 017.262-9.204 28.8 28.8 0 019.897-5.506 27.736 27.736 0 0110.87-1.198zM69.38 35.351c0-.223-.003-.447-.008-.67.007-.094.009-.189.005-.283-.054-1.34-.137-2.69-.322-4.02a34.137 34.137 0 00-6.351-15.615l-2.508 3.714-3.383 5.008c.334.793.626 1.604.874 2.429a24.331 24.331 0 01.898 9.437H69.38z" fill="#fff"/></g><defs><clipPath id="nclip0_30_85"><path fill="#fff" transform="translate(.5 .5)" d="M0 0h69v43H0z"/></clipPath></defs></svg><svg preserveAspectRatio="none" viewBox="0 0 100 102" version="1" id="top" xmlns="http://www.w3.org/2000/svg"><path d="M0 0l50 100L100 0z" fill="#1D1F2A" stroke="#1D1F2A"/></svg></svg>