<svg width="380" height="924" viewBox="0 0 380 924" fill="none" xmlns="http://www.w3.org/2000/svg">
<path d="M72.4579 251.623L55.8877 177.236L128.594 200.08L72.4579 251.623Z" stroke="#0DC620" stroke-width="6"/>
<path d="M312.969 251.655L345.793 320.435L269.816 314.471L312.969 251.655Z" stroke="#0DC620" stroke-width="6"/>
<path d="M188.461 66.448L256.841 32.8006L251.79 108.843L188.461 66.448Z" stroke="#0DC620" stroke-width="6"/>
<path d="M145.556 449.773L151.76 373.816L214.439 417.166L145.556 449.773Z" stroke="#0DC620" stroke-width="6"/>
<path d="M132.528 867.674L56.6023 861.092L100.266 798.63L132.528 867.674Z" stroke="#0DC620" stroke-width="6"/>
<path d="M307.52 907.601L239.698 872.842L303.711 831.486L307.52 907.601Z" stroke="#0DC620" stroke-width="6"/>
<path d="M212.699 771.186L172.384 706.512L248.55 703.935L212.699 771.186Z" stroke="#0DC620" stroke-width="6"/>
<path d="M72.8728 666.511L11.4797 621.357L81.2808 590.766L72.8728 666.511Z" stroke="#0DC620" stroke-width="6"/>
<path d="M249.033 561.525L323.202 544.004L301.291 616.997L249.033 561.525Z" stroke="#0DC620" stroke-width="6"/>
</svg>
